<?xml version="1.0" encoding="UTF-8"?>
<svg version="1.1" xmlns="http://www.w3.org/2000/svg" width="5000" height="5000">
<path d="M0 0 C1650 0 3300 0 5000 0 C5000 1650 5000 3300 5000 5000 C3350 5000 1700 5000 0 5000 C0 3350 0 1700 0 0 Z " fill="#FEFEFE" transform="translate(0,0)"/>
<path d="M0 0 C1.62653378 0.00040031 1.62653378 0.00040031 3.28592682 0.00080872 C36.69037707 0.01111904 70.01870995 0.21900668 103.375 2.1875 C104.54351501 2.2553772 105.71203003 2.32325439 106.91595459 2.39318848 C152.46596702 5.05346891 197.84798887 8.68720036 243.10546875 14.51220703 C247.59634967 15.08990219 252.08905478 15.65192856 256.58233643 16.21060181 C278.2740323 18.91358955 299.90226087 21.93784087 321.5 25.3125 C323.08491241 25.55862534 323.08491241 25.55862534 324.70184326 25.8097229 C337.56821483 27.81568077 350.34137165 30.09426338 363.09454346 32.72314453 C366.63277308 33.44361267 370.17912132 34.11958799 373.7265625 34.79296875 C403.32850554 40.43920019 432.93276256 46.31241738 462.1171875 53.85546875 C467.63509493 55.27562447 473.18776187 56.51715012 478.75 57.75 C485.96772621 59.35986869 493.09860074 61.14174131 500.20776367 63.17651367 C505.80754107 64.77373475 511.43406132 66.23928103 517.07739258 67.67480469 C528.31310531 70.53666469 539.43432198 73.61690222 550.50390625 77.0625 C555.97992227 78.76678313 561.46990943 80.42057722 566.96484375 82.0625 C648.28966452 106.38849358 727.85153372 135.5696327 805.375 170.1875 C806.03763855 170.48293701 806.7002771 170.77837402 807.38299561 171.08276367 C828.92441314 180.69119363 850.23070224 190.73518279 871.375 201.1875 C872.32979248 201.65941772 873.28458496 202.13133545 874.26831055 202.61755371 C880.77335589 205.83498371 887.27349951 209.06214015 893.76956177 212.29766846 C895.92367703 213.37038404 898.07833896 214.44200275 900.23361206 215.51239014 C914.02145653 222.36533236 927.620885 229.48989596 941.09841919 236.93432617 C944.03078157 238.54848359 946.97760917 240.13313181 949.9296875 241.7109375 C961.84581461 248.09171977 973.58296382 254.72381824 985.23046875 261.58203125 C990.54542668 264.7108399 995.89059334 267.78424292 1001.24316406 270.84814453 C1012.86921292 277.50943613 1024.3387561 284.37195682 1035.68408203 291.5 C1038.55396205 293.29972879 1041.43064459 295.08820537 1044.30859375 296.875 C1081.77253155 320.157724 1118.52975623 344.65062174 1154.19677734 370.60644531 C1156.43513452 372.23114841 1158.67949742 373.84721409 1160.92578125 375.4609375 C1176.62995856 386.74685 1192.05264622 398.38952642 1207.375 410.1875 C1208.11540527 410.75758789 1208.85581055 411.32767578 1209.61865234 411.91503906 C1219.75586803 419.73237094 1229.75952662 427.69475218 1239.66943359 435.79785156 C1241.99618176 437.69362176 1244.34030307 439.56713521 1246.6875 441.4375 C1254.74091889 447.86681275 1262.68196247 454.4207715 1270.53173828 461.09643555 C1274.00684662 464.04671686 1277.51926224 466.94392669 1281.0625 469.8125 C1285.46301575 473.39150123 1289.67332521 477.135423 1293.86328125 480.95703125 C1296.36958744 483.18269351 1298.94424393 485.28271561 1301.5625 487.375 C1307.6325099 492.28101653 1313.26477476 497.61753513 1318.94140625 502.96875 C1321.99938774 505.84839718 1325.12682795 508.62914007 1328.30859375 511.37109375 C1332.85037126 515.36339345 1337.25348128 519.51277992 1341.68701172 523.62451172 C1343.77506831 525.55794219 1345.87000852 527.48380599 1347.96522522 529.4094696 C1350.16720527 531.4366678 1352.36245527 533.47107311 1354.55766296 535.50559998 C1355.70745832 536.56970685 1356.85873154 537.632221 1358.01203918 538.69252014 C1372.52609587 552.05045551 1386.40146915 566.06038765 1400.33496094 580.01708984 C1403.82672817 583.51460434 1407.32303757 587.00753867 1410.8206501 590.49920654 C1413.5455063 593.22043693 1416.26796153 595.94405936 1418.98971176 598.668396 C1420.27824667 599.95759195 1421.56750803 601.2460623 1422.85754776 602.53375244 C1434.94038008 614.5993622 1434.94038008 614.5993622 1440.0809021 620.67321777 C1441.89720345 622.79855378 1443.86944697 624.74181423 1445.875 626.6875 C1449.15603368 629.93006259 1452.22959996 633.25797022 1455.23046875 636.7578125 C1458.20948236 640.13294268 1461.29446264 643.40515093 1464.375 646.6875 C1468.57480404 651.16681691 1472.74195359 655.65605631 1476.74609375 660.3125 C1478.71165089 662.57501181 1480.73173309 664.78440683 1482.75 667 C1485.87922827 670.46280082 1488.88000349 673.99429003 1491.8125 677.625 C1494.88836588 681.42837503 1498.06253166 685.08832652 1501.375 688.6875 C1505.41454818 693.08128548 1509.22179619 697.60588824 1512.96875 702.25 C1515.67278883 705.55103441 1518.45614565 708.77512185 1521.25 712 C1525.78084469 717.24355376 1530.12051297 722.60466036 1534.37060547 728.07739258 C1537.3008658 731.84389033 1540.30320174 735.53428882 1543.375 739.1875 C1548.32947754 745.09236475 1553.09941042 751.12507582 1557.83300781 757.20703125 C1559.50841439 759.35885174 1561.18773831 761.50758346 1562.8671875 763.65625 C1569.46012619 772.10022827 1576.00415038 780.57405223 1582.375 789.1875 C1582.87966797 789.8686084 1583.38433594 790.5497168 1583.90429688 791.25146484 C1591.39371807 801.36480519 1598.81763465 811.52342965 1606.16796875 821.73828125 C1608.28547543 824.68065683 1610.413244 827.61511475 1612.55078125 830.54296875 C1637.70906785 865.05369227 1661.74220989 900.96594723 1683.78027344 937.54882812 C1685.65936199 940.65801201 1687.55192562 943.75888963 1689.4453125 946.859375 C1697.08186428 959.37287337 1704.63773011 971.92157481 1711.91601562 984.64794922 C1713.57373842 987.53342989 1715.24712918 990.40952335 1716.921875 993.28515625 C1724.81448369 1006.85747368 1732.4427979 1020.54333733 1739.86035156 1034.38037109 C1741.2731909 1036.99881511 1742.70513789 1039.60528023 1744.1484375 1042.20703125 C1780.94155661 1108.61269782 1813.11961973 1178.27359645 1840.5435791 1249.04553223 C1841.48265226 1251.46484168 1842.42615998 1253.88239675 1843.37011719 1256.29980469 C1859.49272396 1297.60390477 1859.49272396 1297.60390477 1866.36230469 1317.2890625 C1867.42174124 1320.32127821 1868.49606556 1323.34800252 1869.5703125 1326.375 C1875.18723005 1342.32412674 1880.39755879 1358.39990867 1885.5625 1374.5 C1885.89839142 1375.54429169 1886.23428284 1376.58858337 1886.58035278 1377.66452026 C1891.14968025 1391.88835617 1895.48233771 1406.16616103 1899.60794067 1420.52493286 C1900.38313351 1423.21573253 1901.16632772 1425.90408328 1901.95214844 1428.59179688 C1905.37857024 1440.31512718 1908.45536106 1452.11977644 1911.47973633 1463.95166016 C1913.24824132 1470.86410689 1915.05251805 1477.76068759 1917 1484.625 C1922.83590269 1505.37003718 1927.42964261 1526.36502786 1931.92478943 1547.43107605 C1933.45017123 1554.56759143 1935.03068458 1561.69105301 1936.625 1568.8125 C1943.19468417 1598.27329076 1943.19468417 1598.27329076 1944.79125977 1609.48583984 C1945.47782016 1613.83951142 1946.32078021 1618.15186868 1947.16796875 1622.4765625 C1949.58353369 1635.0076129 1951.66425099 1647.58792287 1953.6875 1660.1875 C1953.88064789 1661.38782867 1954.07379578 1662.58815735 1954.27279663 1663.82485962 C1960.46374584 1702.4553541 1965.54857083 1741.25079587 1969.375 1780.1875 C1969.44205139 1780.86335144 1969.50910278 1781.53920288 1969.57818604 1782.23553467 C1972.31233808 1809.81462756 1974.3590932 1837.45850656 1975.97265625 1865.125 C1976.0134581 1865.81609863 1976.05425995 1866.50719727 1976.09629822 1867.21923828 C1976.95398677 1882.31609273 1977.53867927 1897.42292351 1977.91015625 1912.5390625 C1977.93103994 1913.38104439 1977.95192364 1914.22302628 1977.97344017 1915.09052277 C1978.49862796 1936.70427194 1978.66346145 1958.31790088 1978.6875 1979.9375 C1978.68894516 1980.96931396 1978.69039032 1982.00112793 1978.69187927 1983.06420898 C1978.75874454 2042.66784909 1976.36413077 2102.29007638 1970.62176514 2161.63208008 C1970.37426457 2164.19511584 1970.1321347 2166.75861315 1969.89111328 2169.32226562 C1966.36161238 2206.66286224 1961.47739471 2243.79447364 1955.73498535 2280.8550415 C1955.2692386 2283.87276144 1954.81055997 2286.89153306 1954.35221863 2289.91038513 C1952.28593432 2303.50938784 1950.1279398 2317.07410134 1947.4609375 2330.5703125 C1946.60406204 2334.93185683 1945.81314218 2339.30269818 1945.0390625 2343.6796875 C1941.99864226 2360.86503162 1938.60786995 2377.92664584 1934.77272034 2394.95227051 C1933.62579987 2400.04678172 1932.50786537 2405.14720565 1931.3984375 2410.25 C1927.9001952 2426.29584519 1924.18229757 2442.23773619 1919.96484375 2458.11328125 C1918.45269778 2463.82292028 1917.08390052 2469.55903046 1915.75 2475.3125 C1913.99724647 2482.81936351 1911.97993895 2490.19675175 1909.75 2497.57421875 C1908.08273822 2503.10928266 1906.54785428 2508.68061777 1905 2514.25 C1904.0838119 2517.52628864 1903.16588834 2520.80208471 1902.24707031 2524.07763672 C1901.70340449 2526.01638679 1901.16088548 2527.95545927 1900.62011719 2529.89501953 C1894.19231513 2552.85331931 1886.7169809 2575.50942061 1879.375 2598.1875 C1879.120672 2598.97324402 1878.86634399 2599.75898804 1878.60430908 2600.56854248 C1873.14018902 2617.42758575 1867.29644211 2634.11965051 1861.11328125 2650.7265625 C1859.64658242 2654.67596728 1858.2138757 2658.63023981 1856.84838867 2662.61572266 C1852.02298774 2676.69374703 1846.61264374 2690.50584392 1841.0625 2704.3125 C1840.58311981 2705.50804504 1840.10373962 2706.70359009 1839.60983276 2707.93536377 C1826.31967213 2741.05423624 1812.29376688 2773.83000622 1797.29058838 2806.20916748 C1796.37782557 2808.18139473 1795.46852806 2810.15518641 1794.56005859 2812.12939453 C1786.07090532 2830.55886513 1777.17970657 2848.77962639 1768.125 2866.9375 C1767.62920441 2867.93435822 1767.13340881 2868.93121643 1766.62258911 2869.95828247 C1759.92832094 2883.40191853 1752.93375956 2896.64549811 1745.68566895 2909.79815674 C1743.28224825 2914.17958124 1740.94316826 2918.59466006 1738.59814453 2923.00756836 C1731.76026977 2935.8743599 1724.71036925 2948.59722954 1717.375 2961.1875 C1716.74899902 2962.26547852 1716.12299805 2963.34345703 1715.47802734 2964.45410156 C1701.23509922 2988.97381174 1686.6981839 3013.32455952 1671.375 3037.1875 C1670.90803711 3037.91614258 1670.44107422 3038.64478516 1669.95996094 3039.39550781 C1662.51441987 3050.99152044 1654.88812217 3062.46788523 1647.25 3073.9375 C1646.79272522 3074.62475159 1646.33545044 3075.31200317 1645.86431885 3076.02008057 C1637.23851037 3088.97795659 1628.49640385 3101.85832386 1619.5 3114.5625 C1619.00935059 3115.25617676 1618.51870117 3115.94985352 1618.01318359 3116.66455078 C1595.62802597 3148.25005772 1572.57872988 3179.45359903 1548.06225586 3209.42431641 C1544.56868944 3213.69903637 1541.1410783 3218.01868003 1537.75 3222.375 C1533.30242727 3228.0792678 1528.68137952 3233.61363465 1523.984375 3239.11328125 C1521.61230965 3241.89483088 1519.30007288 3244.72098661 1517 3247.5625 C1512.3564724 3253.2655134 1507.53759591 3258.8073598 1502.70703125 3264.3515625 C1500.03266167 3267.4228542 1497.38497371 3270.51564249 1494.74609375 3273.61743164 C1489.56282666 3279.7065863 1484.2534686 3285.65309811 1478.82421875 3291.5234375 C1476.80626221 3293.71840777 1474.82696555 3295.9341621 1472.875 3298.1875 C1469.50771647 3302.07034848 1466.03403909 3305.8526628 1462.55371094 3309.63378906 C1459.71997589 3312.71410337 1456.91164373 3315.81435589 1454.125 3318.9375 C1445.01266188 3329.07865048 1435.70344623 3339.04696265 1425.9375 3348.5625 C1423.96037458 3350.58784799 1422.1232028 3352.6243123 1420.28686523 3354.77124023 C1416.12843889 3359.53887614 1411.70016835 3364.00628244 1407.22265625 3368.47265625 C1406.36369247 3369.33257675 1405.5047287 3370.19249725 1404.61973572 3371.07847595 C1402.81322985 3372.88565861 1401.00547538 3374.69159392 1399.1965332 3376.49633789 C1396.4456319 3379.24188393 1393.70010779 3381.99272546 1390.95507812 3384.74414062 C1389.19042468 3386.5081332 1387.42546103 3388.2718155 1385.66015625 3390.03515625 C1384.84845474 3390.84888199 1384.03675323 3391.66260773 1383.20045471 3392.50099182 C1378.96870413 3396.71558884 1374.66882521 3400.78002854 1370.12510681 3404.65757751 C1367.22961464 3407.18878221 1364.55936812 3409.93619003 1361.875 3412.6875 C1357.88364908 3416.77838585 1353.77498128 3420.62881819 1349.45019531 3424.36621094 C1345.87692725 3427.50227914 1342.44693241 3430.78899815 1339 3434.0625 C1333.59809083 3439.16953619 1328.17774104 3444.24052867 1322.625 3449.18359375 C1321.05390179 3450.5828531 1319.49209535 3451.99258452 1317.9375 3453.41015625 C1313.71711216 3457.2546658 1309.44467342 3460.97870306 1305 3464.5625 C1300.9867345 3467.80702732 1297.15086874 3471.17499324 1293.375 3474.6875 C1288.81905527 3478.9214621 1284.12228841 3482.91681665 1279.27734375 3486.81640625 C1275.98537897 3489.50580412 1272.77475503 3492.27898901 1269.5625 3495.0625 C1264.34457113 3499.57217418 1259.00738559 3503.88528138 1253.55761719 3508.1105957 C1249.55422593 3511.22627359 1245.66310999 3514.44790168 1241.8125 3517.75 C1236.5610093 3522.24526969 1231.16268725 3526.49737131 1225.66015625 3530.6796875 C1222.3663448 3533.18396014 1219.11992814 3535.7454118 1215.875 3538.3125 C1190.51761836 3558.30360232 1164.42782105 3577.37585546 1138.00585938 3595.93212891 C1134.95875276 3598.07278706 1131.91521803 3600.21838462 1128.87402344 3602.36743164 C1117.05906152 3610.69819913 1105.09119287 3618.76412885 1093 3626.6875 C1091.1841464 3627.87993828 1089.36830999 3629.07240276 1087.55249023 3630.26489258 C1075.22971628 3638.34991409 1062.88568945 3646.39522129 1050.375 3654.1875 C1049.39208984 3654.80028809 1048.40917969 3655.41307617 1047.39648438 3656.04443359 C1012.99335306 3677.44811118 977.98140554 3697.85288251 942.375 3717.1875 C941.47306915 3717.67842133 941.47306915 3717.67842133 940.55291748 3718.17926025 C900.8674088 3739.77168302 860.32709941 3760.42586042 818.95703125 3778.6015625 C815.21777505 3780.25711105 811.49752654 3781.94997355 807.78125 3783.65625 C779.94932145 3796.41794351 751.6419487 3807.95449177 723.1875 3819.25 C722.17301788 3819.65350677 721.15853577 3820.05701355 720.11331177 3820.4727478 C709.17637879 3824.81747161 698.22304023 3829.0477697 687.10131836 3832.8972168 C683.80486207 3834.03865501 680.52135461 3835.20845437 677.2421875 3836.3984375 C628.89067242 3853.89158024 580.03084351 3869.6685075 530.45654297 3883.32666016 C526.26687313 3884.49705913 522.10174501 3885.74274939 517.9375 3887 C511.84235945 3888.8161031 505.722595 3890.33276734 499.52441406 3891.74169922 C495.19695811 3892.73228561 490.94468685 3893.8579801 486.6875 3895.125 C480.10866259 3897.04599086 473.4802751 3898.58210149 466.79272461 3900.06591797 C461.34965149 3901.27647807 455.92268174 3902.5317437 450.5078125 3903.86328125 C432.02714185 3908.3788877 413.44025789 3912.30173398 394.78833771 3916.04096603 C392.84656971 3916.4306625 390.90518419 3916.82226316 388.96380615 3917.21389771 C375.07084086 3920.01018695 361.18161201 3922.6198024 347.17420959 3924.77568054 C340.84308558 3925.75920405 334.5752811 3926.90994537 328.3046875 3928.22265625 C317.10991407 3930.54686208 305.82576376 3932.09109323 294.5 3933.625 C292.27315569 3933.92998223 290.04634965 3934.23524404 287.81958008 3934.54077148 C283.37744892 3935.14905364 278.93477352 3935.75314056 274.49169922 3936.35449219 C270.00680581 3936.96274561 265.52440461 3937.58622523 261.04348755 3938.22303772 C230.60011981 3942.54297818 199.98899332 3945.38847123 169.375 3948.1875 C168.42018738 3948.27557922 167.46537476 3948.36365845 166.48162842 3948.45440674 C155.10102517 3949.50030626 143.71741427 3950.33726082 132.30883789 3951.01171875 C129.16960348 3951.19980636 126.03115003 3951.39883477 122.89257812 3951.59765625 C81.67508219 3954.14963424 40.44989812 3954.48380409 -0.83322525 3954.49802017 C-4.27151315 3954.49927675 -7.70979168 3954.50323838 -11.14807636 3954.50794345 C-41.29499831 3954.54725491 -71.34829755 3954.32451086 -101.44235229 3952.44021606 C-105.92759767 3952.16278223 -110.41493127 3951.93640747 -114.90332031 3951.71655273 C-116.01279903 3951.662152 -116.01279903 3951.662152 -117.14469147 3951.60665226 C-117.8515786 3951.57201594 -118.55846573 3951.53737963 -119.28677368 3951.50169373 C-142.77618857 3950.34385426 -166.20708781 3948.32210306 -189.625 3946.1875 C-190.45114807 3946.11229126 -191.27729614 3946.03708252 -192.128479 3945.95959473 C-233.61353924 3942.15240449 -274.9996462 3936.53903894 -316.125 3929.9375 C-317.12656128 3929.777052 -318.12812256 3929.616604 -319.16003418 3929.45129395 C-331.881337 3927.40175365 -344.54784338 3925.12443812 -357.19512939 3922.66033936 C-359.49512342 3922.21277326 -361.79591346 3921.76964703 -364.09716797 3921.32861328 C-393.43357165 3915.70456722 -422.73517712 3910.02905855 -451.7421875 3902.87109375 C-458.39420713 3901.23101071 -465.06855639 3899.70233758 -471.75 3898.1875 C-490.21431717 3893.97257325 -508.54533426 3889.17558288 -526.76318359 3883.99951172 C-529.62928117 3883.18628526 -532.49692937 3882.3786465 -535.36465454 3881.57118225 C-554.87931623 3876.07114198 -574.31103904 3870.36163506 -593.625 3864.1875 C-594.79095703 3863.8152832 -594.79095703 3863.8152832 -595.98046875 3863.43554688 C-622.01713774 3855.11770992 -647.9115735 3846.45766611 -673.625 3837.1875 C-674.32894897 3836.93458191 -675.03289795 3836.68166382 -675.75817871 3836.42108154 C-720.1205073 3820.47977457 -763.76942727 3802.40145903 -806.74017334 3783.03649902 C-808.69160796 3782.15749719 -810.64387934 3781.28037135 -812.59619141 3780.40332031 C-836.17146687 3769.80119416 -859.44818171 3758.63218581 -882.625 3747.1875 C-883.26173645 3746.87343201 -883.8984729 3746.55936401 -884.55450439 3746.23577881 C-918.5591354 3729.46067976 -918.5591354 3729.46067976 -934.7734375 3719.8125 C-937.81662723 3718.07829873 -940.91374626 3716.53381915 -944.0625 3715 C-952.82307083 3710.68194815 -961.23238662 3705.78185426 -969.68115234 3700.88818359 C-972.70522529 3699.14115323 -975.7365149 3697.40723321 -978.76953125 3695.67578125 C-993.89620802 3687.02301104 -1008.81422397 3678.06580456 -1023.68212891 3668.97900391 C-1026.70476725 3667.13894084 -1029.74017067 3665.32237071 -1032.78393555 3663.51757812 C-1043.22257406 3657.32775805 -1053.41230149 3650.74063225 -1063.625 3644.1875 C-1064.35412598 3643.72118164 -1065.08325195 3643.25486328 -1065.83447266 3642.77441406 C-1085.34151734 3630.29553927 -1104.62351145 3617.42324318 -1123.625 3604.1875 C-1124.7694458 3603.39230957 -1124.7694458 3603.39230957 -1125.93701172 3602.58105469 C-1137.9273308 3594.24553875 -1149.82817482 3585.79468056 -1161.625 3577.1875 C-1162.38103516 3576.63626465 -1163.13707031 3576.0850293 -1163.91601562 3575.51708984 C-1176.6159314 3566.24358353 -1189.14487307 3556.75410184 -1201.625 3547.1875 C-1202.86585789 3546.23824526 -1204.10674017 3545.28902242 -1205.34765625 3544.33984375 C-1218.00118151 3534.64798101 -1230.47305677 3524.74736207 -1242.81640625 3514.6640625 C-1244.4173548 3513.35702459 -1246.02097976 3512.05326644 -1247.625 3510.75 C-1253.06922636 3506.31865296 -1258.44609569 3501.81486461 -1263.79418945 3497.26855469 C-1267.16388745 3494.40857147 -1270.56548907 3491.59475959 -1274 3488.8125 C-1279.70587924 3484.16663896 -1285.25051153 3479.34542882 -1290.796875 3474.51171875 C-1293.25243309 3472.37334726 -1295.71944554 3470.25017 -1298.203125 3468.14453125 C-1304.88394324 3462.47855623 -1311.40143946 3456.68271034 -1317.79492188 3450.69360352 C-1320.71921677 3447.9543539 -1323.65454831 3445.24465638 -1326.6875 3442.625 C-1331.87765665 3438.14158808 -1336.87412788 3433.4446495 -1341.90185547 3428.78125 C-1343.6081854 3427.20305196 -1345.32055908 3425.63170879 -1347.03515625 3424.0625 C-1352.59717807 3418.9660005 -1358.08241859 3413.84076451 -1363.33203125 3408.41796875 C-1365.17984184 3406.62052438 -1367.0491379 3404.96505581 -1369.01025391 3403.29785156 C-1374.85234931 3398.19803566 -1380.27915886 3392.67749232 -1385.75390625 3387.19140625 C-1386.91383055 3386.03215727 -1388.07390312 3384.87305663 -1389.2341156 3383.71409607 C-1391.6537161 3381.29596178 -1394.07151971 3378.8760492 -1396.48803711 3376.45483398 C-1399.56643922 3373.37073528 -1402.64931023 3370.29114906 -1405.73355198 3367.21289158 C-1408.12644869 3364.82362967 -1410.51693238 3362.43196486 -1412.90672112 3360.03959465 C-1414.04174617 3358.90390839 -1415.17749819 3357.76894814 -1416.31402779 3356.63476753 C-1421.79878382 3351.15886513 -1427.23890589 3345.68672403 -1432.25914001 3339.77354431 C-1434.25879821 3337.45152995 -1436.43055386 3335.32419756 -1438.625 3333.1875 C-1442.19363486 3329.71277658 -1445.48312853 3326.08412877 -1448.7421875 3322.32421875 C-1451.94337129 3318.69134005 -1455.28892589 3315.19612967 -1458.625 3311.6875 C-1463.20712438 3306.86836919 -1467.70922576 3302.00651774 -1472.06640625 3296.98242188 C-1474.05652515 3294.69054309 -1476.08779515 3292.43754715 -1478.125 3290.1875 C-1485.02279588 3282.5361634 -1491.74127509 3274.73765465 -1498.4375 3266.91015625 C-1500.53732 3264.45586295 -1502.64152637 3262.0054562 -1504.75 3259.55859375 C-1509.96227625 3253.50560108 -1515.12143148 3247.42106266 -1520.15625 3241.21875 C-1522.06341775 3238.8770377 -1523.98024798 3236.54490313 -1525.90625 3234.21875 C-1532.34422521 3226.44056338 -1538.70001598 3218.61353623 -1544.91015625 3210.65234375 C-1547.8019389 3206.94912922 -1550.74430839 3203.28738905 -1553.6875 3199.625 C-1558.58220957 3193.52177777 -1563.39339033 3187.35924116 -1568.13623047 3181.13720703 C-1569.86895535 3178.86801371 -1571.60845983 3176.6040806 -1573.34765625 3174.33984375 C-1581.4202903 3163.81112814 -1589.32809711 3153.18612741 -1597.04394531 3142.39355469 C-1599.19955446 3139.38582086 -1601.37195923 3136.39038221 -1603.54370117 3133.39428711 C-1624.42321692 3104.56982567 -1644.32228613 3075.08798904 -1663.625 3045.1875 C-1664.26518066 3044.19766113 -1664.90536133 3043.20782227 -1665.56494141 3042.18798828 C-1674.0583278 3029.0439023 -1682.37122811 3015.82120667 -1690.34033203 3002.35253906 C-1691.86039065 2999.79079831 -1693.39948725 2997.24095593 -1694.94067383 2994.69189453 C-1706.18835906 2976.06413097 -1717.00336465 2957.1777872 -1727.625 2938.1875 C-1728.23569336 2937.09904785 -1728.84638672 2936.0105957 -1729.47558594 2934.88916016 C-1739.26494154 2917.41598074 -1748.5914221 2899.73825136 -1757.69630432 2881.89962769 C-1760.21405782 2876.97292916 -1762.77982802 2872.07297671 -1765.36474609 2867.18115234 C-1772.83029236 2853.03312386 -1779.7996857 2838.65264452 -1786.625 2824.1875 C-1786.96251282 2823.47229187 -1787.30002563 2822.75708374 -1787.64776611 2822.02020264 C-1803.67285085 2788.01671057 -1818.70658877 2753.5934306 -1832.8125 2718.75 C-1833.15290314 2717.90956146 -1833.49330627 2717.06912292 -1833.84402466 2716.20321655 C-1838.61866206 2704.39055351 -1843.20936913 2692.51282376 -1847.71438599 2680.59494019 C-1848.54649171 2678.39505666 -1849.38165131 2676.19637155 -1850.21850586 2673.99829102 C-1857.37939935 2655.18041316 -1864.24175286 2636.2852893 -1870.625 2617.1875 C-1871.06682617 2615.86909119 -1871.06682617 2615.86909119 -1871.51757812 2614.52404785 C-1885.49423308 2572.79951694 -1898.57217863 2530.78983046 -1909.625 2488.1875 C-1910.34974822 2485.43631759 -1911.08050508 2482.68676164 -1911.8125 2479.9375 C-1912.11671875 2478.78894531 -1912.4209375 2477.64039062 -1912.734375 2476.45703125 C-1913.63119598 2473.16475422 -1914.59366843 2469.89672884 -1915.5625 2466.625 C-1917.46012328 2460.02361553 -1918.99959142 2453.36835798 -1920.49243164 2446.66503906 C-1921.7798911 2440.89039769 -1923.10404294 2435.12611291 -1924.4765625 2429.37109375 C-1931.0655617 2401.73171833 -1937.1062327 2374.06349715 -1941.94628906 2346.05761719 C-1942.69154826 2341.80803129 -1943.46390959 2337.5639469 -1944.2421875 2333.3203125 C-1958.33953213 2256.30306213 -1967.86759154 2178.84721962 -1972.68088913 2100.69390488 C-1972.80918267 2098.61622331 -1972.9391352 2096.53865099 -1973.06936646 2094.46109009 C-1975.41446491 2056.83147541 -1975.81333159 2019.26503142 -1975.81030273 1981.56835938 C-1975.81022175 1976.50256764 -1975.81713874 1971.43686687 -1975.83081055 1966.37109375 C-1975.91778343 1933.58637331 -1975.40594125 1900.92611652 -1973.625 1868.1875 C-1973.55080276 1866.79094012 -1973.47670905 1865.39437474 -1973.40274048 1863.99780273 C-1972.98090392 1856.18100044 -1972.48794813 1848.3712427 -1971.9375 1840.5625 C-1971.85674225 1839.40021881 -1971.7759845 1838.23793762 -1971.69277954 1837.04043579 C-1966.48466912 1762.98397678 -1958.52053477 1688.16928817 -1943.10253906 1615.50878906 C-1942.38461452 1612.01900045 -1941.78185668 1608.51257886 -1941.1875 1605 C-1938.96278466 1592.00740375 -1936.26443461 1579.10086288 -1933.625 1566.1875 C-1933.40505371 1565.10227051 -1933.18510742 1564.01704102 -1932.95849609 1562.89892578 C-1924.74896294 1522.59700665 -1914.89792711 1482.448311 -1903.19580078 1443.01708984 C-1901.05409528 1435.7746956 -1899.10469237 1428.49209493 -1897.1875 1421.1875 C-1894.66381711 1411.62463371 -1891.79183393 1402.23758194 -1888.55297852 1392.89257812 C-1886.6300664 1387.32601594 -1884.88320244 1381.73372268 -1883.24609375 1376.078125 C-1880.65451107 1367.1432283 -1877.7720301 1358.31886989 -1874.8125 1349.5 C-1874.55176697 1348.7199057 -1874.29103394 1347.9398114 -1874.0223999 1347.13607788 C-1870.35314056 1336.1628627 -1866.57362958 1325.23967976 -1862.5390625 1314.39453125 C-1861.18973617 1310.76295171 -1859.8939885 1307.11469981 -1858.61520386 1303.45770264 C-1854.95214809 1292.99084694 -1851.07601695 1282.61123692 -1847.125 1272.25 C-1846.77873566 1271.34120087 -1846.43247131 1270.43240173 -1846.07571411 1269.49606323 C-1839.24303654 1251.5908181 -1832.07600882 1233.84348604 -1824.625 1216.1875 C-1824.32613892 1215.47783081 -1824.02727783 1214.76816162 -1823.71936035 1214.0369873 C-1814.95179164 1193.22086401 -1805.85925245 1172.56765233 -1796.40429688 1152.0546875 C-1794.75215784 1148.46904272 -1793.11789868 1144.87541618 -1791.484375 1141.28125 C-1783.80930761 1124.5076392 -1775.62228806 1107.99848953 -1767.375 1091.5 C-1766.81928314 1090.38756927 -1766.26356628 1089.27513855 -1765.69100952 1088.1289978 C-1759.16261407 1075.07353256 -1752.54594434 1062.07291748 -1745.68884277 1049.1867981 C-1744.71070646 1047.34856962 -1743.73651065 1045.5082458 -1742.76269531 1043.66772461 C-1735.40697714 1029.78460609 -1727.76182477 1016.10963516 -1719.78515625 1002.57421875 C-1717.21254149 998.20661534 -1714.70826135 993.8076688 -1712.25 989.375 C-1682.354027 935.71940783 -1647.99459847 884.3555895 -1612.625 834.1875 C-1611.95090088 833.23133789 -1611.95090088 833.23133789 -1611.26318359 832.25585938 C-1592.89075015 806.24915297 -1573.67126455 780.77389318 -1553.90625 755.81152344 C-1552.59762461 754.15280085 -1551.2977211 752.48757696 -1550 750.8203125 C-1543.21682497 742.1162493 -1536.23262417 733.58924529 -1529.1953125 725.08984375 C-1527.1162598 722.57119036 -1525.05831871 720.03561001 -1523 717.5 C-1519.10233145 712.72571826 -1515.09509713 708.05169555 -1511.0703125 703.38476562 C-1507.98725682 699.80228639 -1504.96955197 696.17783734 -1502 692.5 C-1498.20345783 687.81942545 -1494.18834728 683.38415596 -1490.10546875 678.953125 C-1487.62035768 676.18232399 -1485.27055667 673.33698638 -1482.9375 670.4375 C-1479.89925576 666.67306733 -1476.76173701 663.20542578 -1473.2890625 659.84375 C-1470.9336822 657.49942782 -1468.79555227 654.9872023 -1466.625 652.47265625 C-1462.84573461 648.15455029 -1458.93367157 643.95551966 -1455.046875 639.734375 C-1453.6947197 638.2633489 -1452.34723031 636.78803795 -1451 635.3125 C-1440.16995799 623.45102542 -1429.28782009 611.65388958 -1417.81152344 600.41088867 C-1414.87174156 597.51419405 -1412.05789162 594.57527327 -1409.37109375 591.44140625 C-1405.18596935 586.59553417 -1400.67191723 582.08409878 -1396.13696289 577.5690918 C-1394.68975615 576.12724779 -1393.24797974 574.68012884 -1391.80664062 573.23242188 C-1387.2005158 568.6233351 -1382.52777211 564.16471181 -1377.57983398 559.92407227 C-1373.75431383 556.52568025 -1370.21107184 552.8347676 -1366.625 549.1875 C-1361.67795629 544.15603575 -1356.69255186 539.27983665 -1351.33984375 534.6796875 C-1349.33719386 532.93706276 -1347.4685634 531.09690495 -1345.625 529.1875 C-1342.54254495 526.06339016 -1339.34990228 523.16048912 -1336.0234375 520.30078125 C-1332.83353677 517.49013582 -1329.73228707 514.58886278 -1326.625 511.6875 C-1322.31968076 507.67142847 -1317.99532219 503.6962066 -1313.53515625 499.8515625 C-1311.26295489 497.87209874 -1309.04040128 495.8416683 -1306.8125 493.8125 C-1303.34969918 490.68327173 -1299.81820997 487.68249651 -1296.1875 484.75 C-1292.38412497 481.67413412 -1288.72417348 478.49996834 -1285.125 475.1875 C-1280.70859856 471.12766355 -1276.16336478 467.29426179 -1271.49609375 463.52734375 C-1268.39512983 461.00016363 -1265.35334545 458.41123995 -1262.3125 455.8125 C-1257.35182755 451.58630674 -1252.28446472 447.52515371 -1247.13964844 443.52612305 C-1242.37565939 439.81039492 -1237.7126478 435.98186592 -1233.0625 432.125 C-1226.61093449 426.78257792 -1220.06501288 421.61440276 -1213.39599609 416.54492188 C-1211.41623939 415.02749049 -1209.45140119 413.4920171 -1207.48828125 411.953125 C-1197.4655119 404.09768 -1187.30574086 396.46025836 -1177.02490234 388.94628906 C-1174.61123563 387.17741267 -1172.20491216 385.39899835 -1169.80078125 383.6171875 C-1160.95361201 377.06286397 -1152.0520361 370.60171359 -1143.03417969 364.28417969 C-1140.2749138 362.34960251 -1137.52229812 360.40639107 -1134.77832031 358.45019531 C-1123.99338784 350.77082269 -1113.03290532 343.37976033 -1102 336.0625 C-1100.32537256 334.9494418 -1098.65089304 333.83616101 -1096.9765625 332.72265625 C-1093.7220493 330.55855906 -1090.46649758 328.39603793 -1087.21020508 326.23461914 C-1083.6000518 323.83732824 -1079.99572711 321.43146944 -1076.39347839 319.02232361 C-1070.53719517 315.10748134 -1064.65878322 311.23782458 -1058.6875 307.5 C-1057.91229004 307.01289551 -1057.13708008 306.52579102 -1056.33837891 306.02392578 C-1054.6628857 304.97184125 -1052.98676374 303.92075746 -1051.31005859 302.87060547 C-1048.42941787 301.06490105 -1045.55257374 299.25323451 -1042.67578125 297.44140625 C-1031.82693961 290.62028859 -1020.92990046 283.92027369 -1009.84765625 277.48583984 C-1007.39110184 276.050871 -1004.94490832 274.5992517 -1002.5 273.14453125 C-989.31366063 265.30051397 -976.02286519 257.66427319 -962.625 250.1875 C-960.9241626 249.23738037 -960.9241626 249.23738037 -959.18896484 248.26806641 C-943.38316933 239.44764337 -927.46562288 230.89312619 -911.37060547 222.60888672 C-908.15522316 220.94429879 -904.95792312 219.24755873 -901.76245117 217.54516602 C-879.32025649 205.60804038 -856.48133612 194.45555565 -833.36132812 183.89746094 C-830.05836517 182.38819341 -826.76165438 180.86566444 -823.46595764 179.34060669 C-775.68713169 157.23627108 -726.97291526 137.51100988 -677.625 119.1875 C-676.55362793 118.78885742 -675.48225586 118.39021484 -674.37841797 117.97949219 C-641.9769015 105.95721006 -609.12739084 94.6399653 -575.8203125 85.37890625 C-572.38283204 84.41796384 -569.00101736 83.34888759 -565.625 82.1875 C-557.71485622 79.476407 -549.64986406 77.2859469 -541.60205078 75.02587891 C-538.50227113 74.15293784 -535.40534054 73.27035413 -532.30859375 72.38671875 C-522.45942042 69.58773991 -512.62443572 66.85870414 -502.63671875 64.59838867 C-497.83600738 63.50305262 -493.10874604 62.22880511 -488.375 60.875 C-450.71319479 50.20394783 -412.0343407 42.61251015 -373.625 35.1875 C-372.44257721 34.95836914 -372.44257721 34.95836914 -371.23626709 34.72460938 C-346.10074734 29.86122712 -320.87277903 25.75104722 -295.55859375 21.93359375 C-291.36017391 21.30029459 -287.16417574 20.65282468 -282.96875 20 C-267.39558029 17.59933006 -251.77623505 15.70452875 -236.12159729 13.93301392 C-231.34052293 13.39008144 -226.56430313 12.81519997 -221.7890625 12.22265625 C-182.951582 7.47178432 -143.87717079 4.51275674 -104.8125 2.4375 C-103.70862946 2.37851532 -102.60475891 2.31953064 -101.46743774 2.25875854 C-93.85501256 1.85837519 -86.24117396 1.50822996 -78.625 1.1875 C-77.50814819 1.1391098 -76.39129639 1.0907196 -75.24060059 1.04086304 C-50.1669789 -0.01237036 -25.0916847 -0.01384865 0 0 Z " fill="#020202" transform="translate(2500.625,678.8125)"/>
<path d="M0 0 C3.02036064 0.00012193 6.04067556 -0.00853155 9.06102306 -0.01677752 C16.21294682 -0.0358524 23.36475402 -0.03895565 30.51669621 -0.03213692 C37.79670794 -0.02552125 45.07620981 -0.04829756 52.35611838 -0.08545065 C58.69162996 -0.11656274 65.02698121 -0.12746333 71.36256725 -0.12361383 C75.10866498 -0.12158698 78.85436628 -0.12636797 82.60038877 -0.15150642 C108.84097361 -0.31375032 134.87679644 1.76585671 159.75570989 10.78133965 C161.14768263 11.26554337 162.53994099 11.74892671 163.9324677 12.23153496 C173.47552132 15.58674776 182.51625859 19.48214196 191.31820989 24.46883965 C192.38426457 25.00508965 193.45031926 25.54133965 194.54867864 26.09383965 C209.18877217 33.51196255 222.0550912 43.65925137 234.31820989 54.46883965 C235.16125676 55.18942558 236.00430364 55.91001152 236.87289739 56.6524334 C241.8230451 60.92756097 246.13038605 65.45400858 250.31820989 70.46883965 C251.05555364 71.30673027 251.79289739 72.1446209 252.55258489 73.00790215 C283.23554635 108.47896906 299.73807984 153.949053 299.56430554 200.77813339 C299.5657881 202.38732111 299.56814874 203.9965082 299.57129854 205.60569352 C299.57739715 210.0084244 299.57111946 214.41106193 299.56274227 218.81378581 C299.55584178 223.61072416 299.56062156 228.40765355 299.56389725 233.20459378 C299.56803607 241.60519011 299.56477198 250.00575806 299.55662084 258.40635109 C299.54453418 270.8976569 299.54395077 283.38894488 299.54570481 295.88025547 C299.54833076 316.8941932 299.54165682 337.90811833 299.52967 358.92205238 C299.51783317 379.72640737 299.51013754 400.53075711 299.50796437 421.33511543 C299.50782689 422.62900097 299.50768941 423.92288651 299.50754777 425.2559807 C299.5068711 431.82705722 299.50626833 438.39813375 299.50569402 444.96921028 C299.5044881 458.33016126 299.50263124 471.69111213 299.50048947 485.05206299 C299.50038284 485.72048541 299.5002762 486.38890784 299.50016634 487.07758549 C299.49492592 519.5760068 299.48231188 552.07442468 299.46908879 584.57284355 C299.46450539 595.84758311 299.45995462 607.12232268 299.45553899 618.3970623 C299.45512814 619.44598275 299.45512814 619.44598275 299.45470899 620.51609351 C299.44201591 653.03662131 299.43456806 685.55714971 299.4284694 718.07767934 C299.42807327 720.18948027 299.42767489 722.3012812 299.42727604 724.41308213 C299.42463643 738.40834297 299.42208714 752.40360382 299.41959832 766.39886468 C299.41452757 794.90844669 299.40888348 823.41802857 299.40289617 851.9276104 C299.40262159 853.23841499 299.40234701 854.54921959 299.40206411 855.89974553 C299.38366492 943.42277975 299.35197477 1030.94581017 299.31820989 1118.46883965 C300.17651414 1118.4683717 301.0348184 1118.46790376 301.91913188 1118.46742164 C389.07900972 1118.42000212 476.23888997 1118.37418625 582.31064153 1118.34181023 C583.72130416 1118.34139187 585.1319668 1118.34097352 586.54262944 1118.34055516 C616.1557187 1118.33178626 645.7688081 1118.32363621 675.38189772 1118.31620061 C690.25852166 1118.31246456 705.13514557 1118.30860964 720.01176945 1118.30464232 C722.25578944 1118.30404457 724.49980943 1118.30345022 726.74382941 1118.302856 C761.28028299 1118.2936809 795.81673339 1118.28196365 830.35318303 1118.26284599 C831.09520356 1118.2624353 831.83722409 1118.2620246 832.60173009 1118.26160146 C844.5645632 1118.25496471 856.52739618 1118.24811374 868.49022915 1118.24123432 C902.96568473 1118.22141193 937.44113785 1118.20318532 971.91659856 1118.19542027 C972.62623583 1118.19525966 973.33587311 1118.19509905 974.06701454 1118.19493358 C989.64892248 1118.1914355 1005.23083045 1118.1887513 1020.81273866 1118.1868367 C1027.08330021 1118.18605188 1033.35386174 1118.18515001 1039.62442327 1118.18420792 C1040.6538227 1118.18405749 1040.6538227 1118.18405749 1041.70401809 1118.18390403 C1063.77996517 1118.18062001 1085.85589405 1118.16782491 1107.93183379 1118.14999302 C1130.80815115 1118.13155969 1153.68445353 1118.12380607 1176.56077951 1118.12833551 C1189.73983097 1118.13061386 1202.91881652 1118.12456424 1216.09785606 1118.10644702 C1224.91327065 1118.09515865 1233.72864231 1118.0948758 1242.54405992 1118.1033442 C1247.55937666 1118.10785288 1252.57456918 1118.10776448 1257.58987236 1118.0941901 C1323.40800461 1117.92649898 1380.68288013 1134.69684959 1428.63070989 1181.53133965 C1453.19721182 1206.73905533 1470.58332111 1238.7845127 1479.06820989 1272.84383965 C1479.26704778 1273.62033867 1479.46588567 1274.39683769 1479.67074895 1275.19686699 C1483.8414197 1292.92758306 1483.63411299 1311.18521038 1483.61979246 1329.28289318 C1483.61870425 1332.01803405 1483.62365238 1334.75315267 1483.62839788 1337.48828864 C1483.63940237 1343.95854868 1483.63998248 1350.42875062 1483.63388371 1356.89901543 C1483.62785469 1363.50133434 1483.64014873 1370.10343957 1483.66145378 1376.70572209 C1483.67925688 1382.44061329 1483.68504209 1388.17543763 1483.68181604 1393.91035533 C1483.68003213 1397.30629802 1483.68372533 1400.70196891 1483.69653058 1404.09790611 C1483.87011508 1456.55958319 1469.47392456 1505.10309128 1433.39242864 1544.2071209 C1431.51699403 1546.25208632 1429.72788456 1548.34503439 1427.94320989 1550.46883965 C1395.28991725 1587.65937796 1342.71395949 1609.05635614 1294.31820989 1613.46883965 C1288.52858933 1613.795009 1282.72974416 1613.73512952 1276.9332087 1613.7149353 C1275.21882445 1613.71641789 1273.50444077 1613.71877856 1271.79005876 1613.7219283 C1267.09990973 1613.7280264 1262.40984834 1613.72174964 1257.71970589 1613.71337203 C1252.60946095 1613.70647112 1247.49922442 1613.71125139 1242.38897771 1613.71452701 C1233.4398395 1613.7186657 1224.49072794 1613.71540196 1215.54159284 1613.7072506 C1202.23463007 1613.69516361 1188.92768405 1613.69458056 1175.6207168 1613.69633457 C1153.23457785 1613.69896048 1130.84845057 1613.69230132 1108.4623158 1613.68029976 C1086.29952811 1613.66844638 1064.13674528 1613.66074789 1041.97395444 1613.65859413 C1041.28512776 1613.65852531 1040.59630108 1613.65845648 1039.88660087 1613.65838557 C1033.59503556 1613.65775916 1027.30347024 1613.65718378 1021.01190492 1613.65666963 C1005.37325046 1613.65539099 989.73459612 1613.65347245 974.09594178 1613.65111923 C973.38386892 1613.6510126 972.67179607 1613.65090596 971.93814524 1613.6507961 C937.31767993 1613.64555572 902.69721783 1613.63294169 868.07675481 1613.61971855 C856.06584989 1613.61513514 844.05494495 1613.61058438 832.04403996 1613.60616875 C831.29910106 1613.60589485 830.55416215 1613.60562095 829.78664933 1613.60533875 C795.14256432 1613.59264561 760.49847876 1613.5851978 725.85439203 1613.57909916 C723.60468538 1613.57870303 721.35497873 1613.57830464 719.10527207 1613.5779058 C704.19608346 1613.57526619 689.28689483 1613.5727169 674.37770619 1613.57022808 C644.71327868 1613.56527535 615.04885127 1613.559792 585.38442392 1613.55394399 C583.97179414 1613.55366551 582.55916436 1613.5533874 581.14653458 1613.55310966 C494.9477952 1613.53615798 408.74905937 1613.50784479 299.31820989 1613.46883965 C299.31867783 1614.30283641 299.31914577 1615.13683318 299.31962789 1615.99610257 C299.36971302 1705.44838604 299.41670095 1794.90067125 299.44523931 1888.4529705 C299.44565766 1889.82376178 299.44607601 1891.19455305 299.44649437 1892.56534432 C299.45526331 1921.3415907 299.46341336 1950.11783722 299.47084892 1978.89408398 C299.47458497 1993.35035697 299.47843988 2007.80662993 299.48240721 2022.26290287 C299.48300496 2024.44351305 299.48359931 2026.62412323 299.48419353 2028.80473341 C299.49336837 2062.36434109 299.50508514 2095.9239455 299.52420354 2129.48354912 C299.52461424 2130.20455397 299.52502493 2130.92555882 299.52544807 2131.6684123 C299.5320848 2143.29239337 299.53893578 2154.91637432 299.54581521 2166.54035525 C299.56563821 2200.0402483 299.5838646 2233.54013883 299.59162927 2267.04003716 C299.59178987 2267.72962829 299.59195048 2268.41921942 299.59211595 2269.12970725 C299.59561407 2284.27163735 299.59829825 2299.41356748 299.60021284 2314.55549785 C299.60099765 2320.64904832 299.60189952 2326.74259877 299.60284162 2332.83614922 C299.6029419 2333.50304197 299.60304218 2334.16993473 299.6031455 2334.85703636 C299.60653073 2356.97093614 299.6203441 2379.08481553 299.63870599 2401.1987075 C299.65639154 2422.76536054 299.66310785 2444.33199508 299.65871402 2465.89865512 C299.65643605 2478.70444746 299.66248184 2491.51017197 299.68060252 2504.31595204 C299.69189393 2512.88256247 299.69217161 2521.44912873 299.68370533 2530.01574226 C299.67919822 2534.88895452 299.67927843 2539.76203894 299.69285943 2544.63523722 C299.7586451 2569.72282549 299.42637428 2594.1783498 292.31820989 2618.46883965 C292.14064153 2619.10660332 291.96307317 2619.74436699 291.78012395 2620.40145683 C284.73623114 2645.67660163 272.11425022 2669.36049118 255.31820989 2689.46883965 C254.89588078 2689.9867205 254.47355168 2690.50460136 254.03842473 2691.03817558 C219.26346245 2733.6639433 168.14387463 2759.27920336 113.71241307 2765.18262291 C102.54316459 2766.1244716 91.27433887 2765.90145637 80.07224345 2765.87181616 C76.21396976 2765.86407348 72.35571445 2765.87130444 68.49743962 2765.87597466 C62.02766304 2765.88138935 55.55799015 2765.87435339 49.08822942 2765.85995293 C41.66610943 2765.84362085 34.24423675 2765.8489364 26.82212269 2765.86543214 C20.38403134 2765.87915413 13.94601333 2765.88091538 7.50791204 2765.87311614 C3.69129905 2765.86849958 -0.12519866 2765.86764483 -3.94180369 2765.8777256 C-24.33655187 2765.92430256 -43.77554067 2764.88687432 -63.61929011 2759.78133965 C-64.61670222 2759.52642754 -65.61411433 2759.27151543 -66.64175105 2759.00887871 C-94.76385608 2751.55300227 -121.34846842 2738.18262299 -143.68179011 2719.46883965 C-144.20192683 2719.03603691 -144.72206355 2718.60323418 -145.25796199 2718.15731621 C-156.50256946 2708.77427419 -166.66728947 2699.06946752 -175.68179011 2687.46883965 C-176.1178155 2686.90922539 -176.55384089 2686.34961113 -177.00307918 2685.77303886 C-184.19076475 2676.4780894 -190.20361714 2666.85382617 -195.68179011 2656.46883965 C-196.00131648 2655.87748222 -196.32084285 2655.2861248 -196.65005183 2654.67684746 C-201.3675988 2645.93224654 -204.92391933 2637.01709591 -207.98647761 2627.59383965 C-208.64367143 2625.5853372 -209.33288357 2623.59032027 -210.02554011 2621.59383965 C-218.47665404 2596.24749479 -218.26903219 2569.63830415 -218.17085489 2543.25917294 C-218.15691588 2538.29014443 -218.16663907 2533.32114722 -218.17316484 2528.3521111 C-218.18140046 2519.67105392 -218.17498728 2510.9901072 -218.15861201 2502.30906296 C-218.13433138 2489.40097414 -218.13328175 2476.49295398 -218.13677997 2463.58484649 C-218.14201889 2441.8645235 -218.12873359 2420.14424942 -218.10471034 2398.42394066 C-218.08100239 2376.93338336 -218.06559978 2355.44284652 -218.06129909 2333.95227623 C-218.06109261 2332.94880513 -218.06109261 2332.94880513 -218.06088197 2331.92506189 C-218.05962906 2325.81438428 -218.05847831 2319.70370665 -218.05745007 2313.593029 C-218.05489346 2298.40687336 -218.05105677 2283.22071819 -218.04634929 2268.03456306 C-218.04613602 2267.34324407 -218.04592275 2266.65192508 -218.04570301 2265.93965702 C-218.03523296 2232.36295121 -218.01000935 2198.78625868 -217.98354793 2165.2095623 C-217.97438076 2153.56696393 -217.96527906 2141.92436552 -217.95644832 2130.28176689 C-217.95562662 2129.19856041 -217.95562662 2129.19856041 -217.95478833 2128.09347096 C-217.92938202 2094.48299573 -217.91449999 2060.8725182 -217.90230914 2027.26203588 C-217.90151689 2025.07830711 -217.90072011 2022.89457835 -217.89992242 2020.71084959 C-217.894643 2006.23839128 -217.88954445 1991.7659329 -217.88456698 1977.29347448 C-217.87466262 1948.50025236 -217.86369596 1919.70703068 -217.85199879 1890.91380924 C-217.85144183 1889.54279826 -217.85088561 1888.17178727 -217.85033014 1886.80077629 C-217.8142403 1797.74619097 -217.75263699 1708.69162076 -217.68179011 1613.46883965 C-218.54214258 1613.46930759 -219.40249505 1613.46977553 -220.2889188 1613.47025765 C-307.65164625 1613.51767442 -395.0143761 1613.56349027 -501.33092952 1613.59586906 C-502.74471901 1613.59628742 -504.15850851 1613.59670577 -505.572298 1613.59712413 C-535.25057387 1613.6058929 -564.92884989 1613.61404297 -594.60712613 1613.62147868 C-609.51634365 1613.62521476 -624.42556113 1613.62906967 -639.33477859 1613.63303697 C-641.58372481 1613.63363472 -643.83267102 1613.63422907 -646.08161724 1613.63482329 C-680.69673664 1613.64399914 -715.31185287 1613.65571782 -749.92696834 1613.6748333 C-750.67076378 1613.67524399 -751.41455923 1613.67565469 -752.18089393 1613.67607783 C-764.17245679 1613.68271463 -776.16401952 1613.68956558 -788.15558224 1613.69644497 C-822.71090175 1613.71626558 -857.26621882 1613.73449282 -891.82154346 1613.74225903 C-892.53271967 1613.74241963 -893.24389588 1613.74258024 -893.97662288 1613.74274571 C-909.59175712 1613.74624367 -925.20689138 1613.74892792 -940.82202589 1613.75084259 C-947.10581526 1613.75162742 -953.38960461 1613.75252928 -959.67339396 1613.75347137 C-960.36111094 1613.75357166 -961.04882791 1613.75367194 -961.75738478 1613.75377526 C-983.88551287 1613.75706009 -1006.01362281 1613.76985797 -1028.14174358 1613.78768627 C-1051.06906563 1613.80611345 -1073.9963711 1613.81387481 -1096.92370208 1613.80934378 C-1110.13427899 1613.8070643 -1123.34479018 1613.81312518 -1136.55535521 1613.83123227 C-1145.38923105 1613.8425117 -1154.22306403 1613.84280971 -1163.05694287 1613.83433509 C-1168.08444416 1613.82982177 -1173.11182149 1613.82993418 -1178.1393093 1613.84348919 C-1217.03468665 1613.94228453 -1217.03468665 1613.94228453 -1234.68179011 1610.46883965 C-1235.91861824 1610.22636173 -1237.15544637 1609.98388381 -1238.42975414 1609.73405808 C-1241.26953063 1609.13935466 -1244.06447622 1608.45987336 -1246.86929011 1607.71883965 C-1248.35851985 1607.33369194 -1248.35851985 1607.33369194 -1249.87783504 1606.94076347 C-1278.25163984 1599.37941852 -1305.03316232 1586.22817031 -1327.68179011 1567.46883965 C-1328.26444636 1566.98769707 -1328.84710261 1566.50655449 -1329.44741511 1566.01083183 C-1340.65238462 1556.70328505 -1350.67846954 1546.96874824 -1359.68179011 1535.46883965 C-1360.43589168 1534.50848808 -1361.18999324 1533.54813652 -1361.96694636 1532.5586834 C-1367.39373813 1525.49361487 -1372.24759354 1518.19366583 -1376.68179011 1510.46883965 C-1377.23117244 1509.51581963 -1377.23117244 1509.51581963 -1377.79165339 1508.54354668 C-1385.85864557 1494.38241189 -1391.2762011 1479.61521901 -1395.93179011 1464.03133965 C-1396.16599666 1463.27111504 -1396.4002032 1462.51089043 -1396.64150691 1461.72762871 C-1401.98584866 1443.04830159 -1402.13828634 1424.07239101 -1402.08476663 1404.80623317 C-1402.0770311 1401.13566217 -1402.08425315 1397.46511067 -1402.08892512 1393.7945385 C-1402.09434243 1387.63816019 -1402.08729747 1381.48189078 -1402.07290339 1375.3255291 C-1402.05657738 1368.26242615 -1402.06188137 1361.19958316 -1402.07838261 1354.13648647 C-1402.09210491 1348.01182319 -1402.09386551 1341.88723702 -1402.0860666 1335.76256329 C-1402.08144936 1332.13095071 -1402.08059712 1328.4994593 -1402.09067607 1324.86785507 C-1402.12751562 1309.4923365 -1401.88112137 1294.55658875 -1398.68179011 1279.46883965 C-1398.45082952 1278.34586637 -1398.45082952 1278.34586637 -1398.21520305 1277.20020676 C-1392.90386085 1251.53036056 -1382.34216539 1226.55595239 -1366.68179011 1205.46883965 C-1366.28282527 1204.91873222 -1365.88386043 1204.3686248 -1365.47280574 1203.80184746 C-1359.15747577 1195.11191275 -1352.10830533 1187.21836386 -1344.68179011 1179.46883965 C-1343.97151668 1178.71731621 -1343.26124324 1177.96579277 -1342.52944636 1177.1914959 C-1314.32706654 1148.06633882 -1274.58321962 1128.85264051 -1235.01626277 1121.89217949 C-1231.74122753 1121.29827538 -1228.48397591 1120.62293281 -1225.22549129 1119.94466972 C-1219.58427989 1118.88941288 -1214.15456845 1118.34392141 -1208.41319543 1118.34464115 C-1207.71121036 1118.34336306 -1207.00922529 1118.34208498 -1206.28596794 1118.34076816 C-1203.93539526 1118.33770729 -1201.58488989 1118.34176587 -1199.23431945 1118.34579182 C-1197.52414361 1118.345052 -1195.81396791 1118.34387323 -1194.10379264 1118.34229532 C-1189.3880534 1118.33922283 -1184.67233568 1118.34240432 -1179.95659804 1118.34657345 C-1174.83249563 1118.35000428 -1169.70839543 1118.3476375 -1164.58429259 1118.34599596 C-1155.59842281 1118.34392052 -1146.61255964 1118.34556891 -1137.62669063 1118.34963417 C-1124.26497246 1118.35566233 -1110.90325848 1118.35597061 -1097.5415392 1118.35509218 C-1075.0664076 1118.35377735 -1052.59127925 1118.35711595 -1030.11614871 1118.36310959 C-1007.85743453 1118.36903133 -985.59872155 1118.37288453 -963.34000659 1118.3739624 C-962.303236 1118.37401402 -962.303236 1118.37401402 -961.24552055 1118.37406668 C-954.93268482 1118.37437988 -948.6198491 1118.37466757 -942.30701337 1118.37492466 C-926.61376489 1118.37556406 -910.92051643 1118.3765234 -895.22726798 1118.37769985 C-894.51261922 1118.37775317 -893.79797046 1118.37780649 -893.06166567 1118.37786142 C-858.29514745 1118.38048316 -823.52863003 1118.38679081 -788.76211238 1118.39340019 C-776.69682511 1118.39569185 -764.63153784 1118.39796721 -752.56625056 1118.40017509 C-751.44382045 1118.40038052 -751.44382045 1118.40038052 -750.29871498 1118.40059009 C-715.51499096 1118.40693377 -680.7312668 1118.41065963 -645.94754235 1118.41370989 C-643.68945252 1118.41390795 -641.4313627 1118.41410715 -639.17327287 1118.41430657 C-624.20883709 1118.41562635 -609.2444013 1118.416901 -594.27996551 1118.41814543 C-564.50426271 1118.42062195 -534.72855994 1118.42336364 -504.95285718 1118.42628748 C-503.53484949 1118.42642672 -502.1168418 1118.42656577 -500.69883411 1118.42670464 C-415.05586346 1118.4350939 -329.41289369 1118.44904866 -217.68179011 1118.46883965 C-217.68225806 1117.66246689 -217.682726 1116.85609413 -217.68320812 1116.02528584 C-217.7340581 1028.21509784 -217.78117285 940.40490813 -217.80881953 852.5947094 C-217.80944079 850.62654467 -217.80944079 850.62654467 -217.8100746 848.61861905 C-217.81883506 820.79605847 -217.82699358 792.97349775 -217.83442915 765.15093679 C-217.8381652 751.17378062 -217.84202011 737.19662448 -217.84598744 723.21946837 C-217.84658519 721.11112806 -217.84717954 719.00278775 -217.84777375 716.89444744 C-217.85694868 684.44678952 -217.8686656 651.99913498 -217.88778377 619.55148125 C-217.88819446 618.85435742 -217.88860516 618.15723359 -217.8890283 617.4389848 C-217.89566503 606.20000018 -217.90251601 594.96101568 -217.90939543 583.7220312 C-217.92921825 551.33197631 -217.94744471 518.94192403 -217.95520949 486.55186367 C-217.9553701 485.88512888 -217.9555307 485.21839409 -217.95569618 484.53145521 C-217.95903717 470.54900451 -217.96169929 456.56655374 -217.96353508 442.58410275 C-217.96439952 436.03501136 -217.96537643 429.48591998 -217.96642184 422.93682861 C-217.96662411 421.64789994 -217.96682638 420.35897127 -217.96703478 419.03098416 C-217.97057705 398.30023862 -217.98448346 377.56951242 -218.00228622 356.83877476 C-218.01997113 335.98683124 -218.02668824 315.13490686 -218.02229425 294.28295612 C-218.02001616 281.90131352 -218.02606314 269.51974107 -218.04418274 257.13811117 C-218.05547321 248.85550356 -218.0557525 240.57294164 -218.04728555 232.29033083 C-218.04277796 227.57850649 -218.04286072 222.86681437 -218.05643966 218.15500449 C-218.20685864 162.64701968 -206.32246339 111.52771068 -167.75600886 69.7305584 C-165.88057425 67.68559297 -164.09146479 65.5926449 -162.30679011 63.46883965 C-121.71620954 17.10620403 -59.25907045 -0.03183477 0 0 Z " fill="#FEFEFE" transform="translate(2422.681790113449,1321.5311603546143)"/>
</svg>
